<svg width="130" height="28" viewBox="0 0 130 28" fill="none" xmlns="http://www.w3.org/2000/svg">
<g clip-path="url(#clip0_20_150)">
<path d="M13.7563 0.297302C6.17109 0.297302 0 6.44433 0 14C0 21.5557 6.17109 27.7027 13.7563 27.7027C21.3416 27.7027 27.5126 21.5557 27.5126 14C27.5126 6.44433 21.3416 0.297302 13.7563 0.297302ZM19.102 10.0564C18.582 10.5634 17.8777 10.8429 17.1514 10.8319L15.7455 10.8155C13.8911 15.225 11.8772 20.95 12.6558 21.8736C13.6105 23.0054 17.8447 17.6888 17.8447 17.6888C17.8447 17.6888 14.4029 25.4664 11.1729 23.4001C9.29377 22.197 11.0711 15.8444 12.8677 10.7799L10.4796 10.7497L11.4673 8.73269L13.5995 8.77928C14.59 6.16206 15.4208 4.2519 15.4208 4.2519L15.9518 4.58899C17.1184 5.32893 17.5448 6.81431 16.9615 8.06125C16.846 8.31064 16.7249 8.57373 16.6011 8.84779L20.2658 8.93L19.102 10.0591V10.0564Z" fill="white"/>
<path d="M16.9615 8.05853C17.5448 6.80884 17.1184 5.32621 15.9518 4.58626L15.4208 4.24918C15.4208 4.24918 14.5872 6.15933 13.5995 8.77655L11.4673 8.72996L10.4796 10.747L12.8677 10.7771C11.0711 15.8417 9.29377 22.1942 11.1729 23.3973C14.4029 25.4637 17.8447 17.686 17.8447 17.686C17.8447 17.686 13.6105 23.0027 12.6558 21.8709C11.8772 20.9473 13.8911 15.2223 15.7455 10.8128L17.1514 10.8292C17.8805 10.8374 18.582 10.5579 19.102 10.0536L20.2658 8.92454L16.6011 8.84232C16.7249 8.56827 16.846 8.30518 16.9615 8.05579V8.05853Z" fill="#1BAFF3"/>
<path d="M54.2522 6.89653C54.2522 7.17332 54.2412 7.40901 54.2164 7.60358C54.1917 7.79816 54.1559 7.95711 54.1091 8.07496C54.0623 8.1928 54.0018 8.2805 53.9303 8.33805C53.8588 8.3956 53.779 8.42301 53.6937 8.42301H49.0495V23.3151C49.0495 23.411 49.0193 23.496 48.956 23.5727C48.8927 23.6494 48.7909 23.7097 48.6479 23.7591C48.5048 23.8057 48.3122 23.844 48.0673 23.8742C47.8225 23.9043 47.5198 23.918 47.1567 23.918C46.7935 23.918 46.4909 23.9043 46.246 23.8742C46.0011 23.844 45.8085 23.8084 45.6655 23.7591C45.5224 23.7125 45.4206 23.6494 45.3573 23.5727C45.2941 23.496 45.2638 23.411 45.2638 23.3151V8.42301H40.6197C40.5234 8.42301 40.4436 8.3956 40.3748 8.33805C40.3088 8.2805 40.251 8.1928 40.2042 8.07496C40.1575 7.95711 40.1217 7.79816 40.0969 7.60358C40.0722 7.40901 40.0612 7.17332 40.0612 6.89653C40.0612 6.61973 40.0722 6.3676 40.0969 6.16754C40.1217 5.96748 40.1575 5.80853 40.2042 5.68795C40.251 5.5701 40.3088 5.48241 40.3748 5.43034C40.4408 5.37827 40.5234 5.35086 40.6197 5.35086H53.6937C53.779 5.35086 53.8588 5.37827 53.9303 5.43034C54.0018 5.48241 54.0623 5.56736 54.1091 5.68795C54.1559 5.80853 54.1917 5.96748 54.2164 6.16754C54.2412 6.3676 54.2522 6.61151 54.2522 6.89653Z" fill="white"/>
<path d="M64.9051 23.3891C64.9051 23.5234 64.8583 23.6275 64.762 23.7043C64.6657 23.781 64.5171 23.8358 64.3108 23.8687C64.1045 23.9016 63.8018 23.918 63.4001 23.918C62.9709 23.918 62.6573 23.9016 62.462 23.8687C62.2666 23.8358 62.1263 23.781 62.0465 23.7043C61.964 23.6275 61.9255 23.5234 61.9255 23.3891V22.3751C61.4 22.9369 60.8002 23.3754 60.1261 23.6878C59.4521 24.003 58.7037 24.1592 57.8838 24.1592C57.2043 24.1592 56.5825 24.0715 56.013 23.8961C55.4435 23.7207 54.951 23.4576 54.5356 23.1096C54.1201 22.7615 53.7982 22.3312 53.5671 21.816C53.3388 21.3008 53.2232 20.7034 53.2232 20.0155C53.2232 19.2728 53.369 18.6288 53.6607 18.0807C53.9523 17.5326 54.387 17.0804 54.9648 16.7241C55.5425 16.3678 56.2606 16.102 57.1217 15.9321C57.9829 15.7622 58.9816 15.6745 60.1179 15.6745H61.3642V14.9044C61.3642 14.5043 61.3229 14.1535 61.2431 13.8548C61.1606 13.556 61.0285 13.3039 60.8415 13.1038C60.6544 12.9038 60.4068 12.7558 60.0959 12.6599C59.785 12.564 59.3998 12.5174 58.9431 12.5174C58.3406 12.5174 57.8041 12.5831 57.3308 12.7174C56.8576 12.8517 56.4394 12.9997 56.0763 13.1614C55.7131 13.3231 55.4105 13.4711 55.1656 13.6054C54.9207 13.7397 54.7226 13.8054 54.5713 13.8054C54.4668 13.8054 54.3732 13.7725 54.2907 13.7068C54.2082 13.641 54.1421 13.5451 54.0899 13.4217C54.0376 13.2984 53.9963 13.145 53.9688 12.9641C53.9413 12.7832 53.9248 12.5831 53.9248 12.3639C53.9248 12.0679 53.9495 11.835 53.9963 11.6651C54.0431 11.4951 54.1339 11.3389 54.2687 11.2019C54.4035 11.0649 54.6374 10.9114 54.9703 10.7442C55.3059 10.5771 55.6966 10.4236 56.1451 10.2811C56.5935 10.1386 57.0832 10.0207 57.6142 9.9303C58.1452 9.83986 58.6927 9.79327 59.2567 9.79327C60.2609 9.79327 61.1166 9.89193 61.8292 10.0865C62.5417 10.2811 63.1278 10.5825 63.5845 10.9854C64.0439 11.391 64.3768 11.9117 64.5887 12.5503C64.7978 13.1888 64.9051 13.9452 64.9051 14.8222V23.3891ZM61.3642 17.9354H59.9886C59.4053 17.9354 58.9073 17.9793 58.4974 18.0642C58.0874 18.1492 57.7518 18.278 57.4932 18.4506C57.2346 18.6233 57.0475 18.8288 56.9264 19.0727C56.8054 19.3167 56.7476 19.5934 56.7476 19.9086C56.7476 20.443 56.9182 20.8596 57.2566 21.1638C57.595 21.468 58.0654 21.6214 58.668 21.6214C59.1742 21.6214 59.6392 21.4926 60.0656 21.235C60.4893 20.9774 60.924 20.602 61.3614 20.1059V17.9354H61.3642Z" fill="white"/>
<path d="M77.5059 19.7469C77.5059 20.4704 77.3683 21.109 77.0959 21.6598C76.8236 22.2107 76.4384 22.6738 75.9432 23.0438C75.4452 23.4138 74.8592 23.6933 74.1796 23.8796C73.5 24.066 72.7654 24.1592 71.9731 24.1592C71.4944 24.1592 71.0377 24.1236 70.603 24.0523C70.1683 23.981 69.7776 23.8906 69.4337 23.781C69.0898 23.6714 68.8036 23.559 68.5725 23.4466C68.3442 23.3315 68.1763 23.2247 68.0718 23.126C67.9672 23.0246 67.8847 22.8684 67.8269 22.6546C67.7692 22.4409 67.7416 22.123 67.7416 21.7064C67.7416 21.4296 67.7499 21.2104 67.7692 21.0432C67.7884 20.876 67.8159 20.7445 67.8544 20.6431C67.893 20.5444 67.9397 20.4759 67.9975 20.443C68.0553 20.4101 68.1268 20.3937 68.2121 20.3937C68.3167 20.3937 68.4735 20.454 68.6771 20.5718C68.8834 20.6897 69.1365 20.8212 69.4447 20.9637C69.7501 21.1062 70.1077 21.2405 70.5122 21.3638C70.9194 21.4872 71.3788 21.5502 71.896 21.5502C72.2207 21.5502 72.5096 21.5173 72.7627 21.4515C73.0158 21.3858 73.2359 21.2898 73.423 21.1665C73.6101 21.0432 73.7504 20.887 73.8467 20.6951C73.943 20.506 73.9898 20.2868 73.9898 20.0374C73.9898 19.7524 73.9017 19.5057 73.7256 19.3029C73.5496 19.0974 73.3157 18.9193 73.0241 18.7685C72.7324 18.6178 72.4023 18.4726 72.0336 18.341C71.6649 18.2095 71.288 18.0615 70.9001 17.897C70.5122 17.7354 70.1352 17.549 69.7666 17.3407C69.3979 17.1324 69.0677 16.8748 68.7789 16.5706C68.4872 16.2664 68.2534 15.8992 68.0773 15.4717C67.9012 15.0441 67.8132 14.5289 67.8132 13.9287C67.8132 13.3286 67.9315 12.7613 68.1708 12.2515C68.4102 11.7418 68.7541 11.306 69.2026 10.9443C69.651 10.5825 70.1985 10.303 70.8451 10.1029C71.4916 9.90289 72.2152 9.80423 73.0158 9.80423C73.4175 9.80423 73.8054 9.83164 74.1851 9.88919C74.562 9.94674 74.9032 10.018 75.2086 10.1029C75.514 10.1879 75.7726 10.2811 75.9817 10.3825C76.1908 10.4811 76.3421 10.5688 76.4329 10.6401C76.5237 10.7113 76.587 10.7826 76.6255 10.8539C76.664 10.9251 76.6915 11.0101 76.7108 11.1115C76.73 11.2101 76.7465 11.3362 76.7603 11.4814C76.774 11.6294 76.7823 11.813 76.7823 12.0323C76.7823 12.2899 76.774 12.4982 76.7603 12.6599C76.7465 12.8216 76.7218 12.9504 76.6887 13.0463C76.6557 13.1422 76.609 13.2052 76.5512 13.2381C76.4934 13.271 76.4274 13.2875 76.3503 13.2875C76.2651 13.2875 76.1302 13.2381 75.9487 13.1367C75.7671 13.0381 75.5387 12.9284 75.2663 12.8161C74.994 12.701 74.6776 12.5941 74.3199 12.4954C73.9622 12.3968 73.5523 12.3447 73.0929 12.3447C72.7682 12.3447 72.4848 12.3776 72.2482 12.4434C72.0089 12.5091 71.8135 12.6051 71.6594 12.7284C71.5054 12.8517 71.3926 12.997 71.3155 13.1641C71.2385 13.3313 71.2 13.5094 71.2 13.6985C71.2 13.9945 71.2908 14.2412 71.4724 14.4412C71.6539 14.6413 71.8933 14.8167 72.1904 14.9701C72.4876 15.1236 72.8232 15.2661 73.2001 15.3977C73.5771 15.5292 73.9595 15.6772 74.3474 15.8334C74.7354 15.9896 75.1178 16.1732 75.4947 16.3843C75.8716 16.5925 76.21 16.8502 76.5044 17.1544C76.8016 17.4586 77.0382 17.8231 77.2197 18.2478C77.4013 18.6726 77.4921 19.1741 77.4921 19.7551L77.5059 19.7469Z" fill="white"/>
<path d="M92.0986 23.359C92.0986 23.4549 92.0711 23.5371 92.0188 23.6083C91.9665 23.6796 91.8702 23.7372 91.7327 23.7783C91.5951 23.8221 91.4052 23.855 91.1659 23.8797C90.9265 23.9043 90.6156 23.9153 90.2332 23.9153C89.8508 23.9153 89.5234 23.9043 89.2813 23.8879C89.0392 23.8714 88.8356 23.8386 88.6788 23.7947C88.5219 23.7509 88.3981 23.6933 88.3128 23.6166C88.2275 23.5398 88.1505 23.4412 88.0845 23.3179L83.8283 16.6063V23.3453C83.8283 23.4412 83.8008 23.5234 83.743 23.5946C83.6852 23.6659 83.5862 23.7262 83.4486 23.7728C83.311 23.8194 83.1267 23.855 82.8956 23.8797C82.6672 23.9043 82.3756 23.9153 82.0207 23.9153C81.6658 23.9153 81.3769 23.9043 81.1458 23.8797C80.9174 23.855 80.7331 23.8194 80.5928 23.7728C80.4552 23.7262 80.3562 23.6659 80.2984 23.5946C80.2406 23.5234 80.2131 23.4412 80.2131 23.3453V4.56981C80.2131 4.47389 80.2406 4.38894 80.2984 4.3122C80.3562 4.23547 80.4525 4.17244 80.5928 4.12036C80.7303 4.06829 80.9147 4.02719 81.1458 3.99978C81.3741 3.97238 81.6658 3.95593 82.0207 3.95593C82.3756 3.95593 82.6645 3.96964 82.8956 3.99978C83.1267 4.02993 83.3083 4.06829 83.4486 4.12036C83.5862 4.17244 83.6852 4.23821 83.743 4.3122C83.8008 4.38894 83.8283 4.47389 83.8283 4.56981V15.7485L87.6113 10.6785C87.6883 10.5634 87.7736 10.4647 87.8699 10.3798C87.9662 10.2948 88.0927 10.229 88.2496 10.1797C88.4064 10.1331 88.6017 10.0975 88.8383 10.0728C89.0722 10.0482 89.3721 10.0372 89.7352 10.0372C90.0984 10.0372 90.3873 10.0482 90.6322 10.0728C90.877 10.0975 91.0723 10.1331 91.2209 10.1797C91.3695 10.2263 91.4713 10.2866 91.5291 10.3578C91.5868 10.4291 91.6143 10.5168 91.6143 10.6209C91.6143 10.7634 91.5786 10.9169 91.5071 11.0786C91.4355 11.2403 91.3282 11.4129 91.1851 11.5938L87.4434 15.8197L91.7739 22.4875C91.8895 22.6793 91.972 22.841 92.0243 22.9808C92.0766 23.1178 92.1041 23.2439 92.1041 23.359H92.0986Z" fill="white"/>
<path d="M104.713 22.26C104.713 22.545 104.702 22.7862 104.677 22.9808C104.653 23.1753 104.617 23.337 104.57 23.4658C104.523 23.5946 104.463 23.6878 104.391 23.7454C104.32 23.8029 104.237 23.8303 104.141 23.8303H95.6394C95.323 23.8303 95.0589 23.7371 94.8443 23.5508C94.6297 23.3644 94.5224 23.063 94.5224 22.6437V5.86882C94.5224 5.7729 94.5527 5.68794 94.616 5.61121C94.6793 5.53447 94.781 5.47418 94.9241 5.42485C95.0672 5.37826 95.2598 5.33989 95.5046 5.30975C95.7495 5.28234 96.0521 5.2659 96.4153 5.2659C96.7785 5.2659 97.0949 5.2796 97.3315 5.30975C97.5708 5.33715 97.7607 5.37552 97.9037 5.42485C98.0468 5.47144 98.1486 5.53447 98.2119 5.61121C98.2752 5.68794 98.3054 5.7729 98.3054 5.86882V20.7335H104.141C104.237 20.7335 104.32 20.7609 104.391 20.813C104.463 20.8651 104.523 20.95 104.57 21.0706C104.617 21.1884 104.653 21.3474 104.677 21.542C104.702 21.7365 104.713 21.9777 104.713 22.2627V22.26Z" fill="white"/>
<path d="M110.604 6.29635C110.604 7.01985 110.455 7.51863 110.158 7.79543C109.861 8.07222 109.313 8.20925 108.51 8.20925C107.706 8.20925 107.151 8.07496 106.867 7.80913C106.584 7.5433 106.444 7.06096 106.444 6.3676C106.444 5.67425 106.589 5.14258 106.881 4.86031C107.173 4.58077 107.726 4.43826 108.537 4.43826C109.349 4.43826 109.885 4.57529 110.172 4.8466C110.458 5.11792 110.601 5.60025 110.601 6.29635H110.604ZM110.331 23.3453C110.331 23.4412 110.304 23.5234 110.246 23.5946C110.188 23.6659 110.089 23.7262 109.952 23.7728C109.814 23.8194 109.63 23.855 109.399 23.8797C109.17 23.9043 108.879 23.9153 108.524 23.9153C108.169 23.9153 107.88 23.9043 107.649 23.8797C107.42 23.855 107.236 23.8194 107.096 23.7728C106.958 23.7262 106.859 23.6659 106.801 23.5946C106.744 23.5234 106.716 23.4412 106.716 23.3453V10.6374C106.716 10.5414 106.744 10.4592 106.801 10.388C106.859 10.3167 106.955 10.2537 107.096 10.2016C107.233 10.1495 107.418 10.1084 107.649 10.081C107.877 10.0536 108.169 10.0372 108.524 10.0372C108.879 10.0372 109.167 10.0509 109.399 10.081C109.63 10.1112 109.811 10.1495 109.952 10.2016C110.089 10.2537 110.188 10.3167 110.246 10.388C110.304 10.4592 110.331 10.5442 110.331 10.6374V23.3453Z" fill="white"/>
<path d="M118.23 13.0353V23.3452C118.23 23.4412 118.203 23.5234 118.145 23.5946C118.087 23.6659 117.991 23.7262 117.859 23.7728C117.724 23.8194 117.54 23.855 117.3 23.8797C117.061 23.9043 116.769 23.9153 116.425 23.9153C116.081 23.9153 115.792 23.9043 115.559 23.8797C115.325 23.855 115.138 23.8194 115 23.7728C114.863 23.7262 114.766 23.6659 114.714 23.5946C114.662 23.5234 114.634 23.4412 114.634 23.3452V13.0353H113.027C112.846 13.0353 112.708 12.923 112.62 12.701C112.529 12.4763 112.483 12.1036 112.483 11.5801C112.483 11.3033 112.494 11.0704 112.518 10.8813C112.543 10.6922 112.576 10.5414 112.62 10.4318C112.664 10.3222 112.719 10.2427 112.791 10.1961C112.862 10.1495 112.945 10.1249 113.041 10.1249H114.631V9.05333C114.631 8.18732 114.717 7.42819 114.89 6.77594C115.063 6.12369 115.33 5.58106 115.693 5.14806C116.057 4.71505 116.519 4.38893 117.083 4.16969C117.647 3.95044 118.315 3.84082 119.088 3.84082C119.46 3.84082 119.826 3.87371 120.186 3.94222C120.547 4.01073 120.808 4.07651 120.976 4.14228C121.144 4.20805 121.259 4.27383 121.328 4.33412C121.394 4.39715 121.446 4.48759 121.485 4.60543C121.523 4.72327 121.548 4.87674 121.565 5.0631C121.578 5.24946 121.587 5.47966 121.587 5.75646C121.587 6.03325 121.576 6.25524 121.559 6.41967C121.54 6.58684 121.512 6.71565 121.474 6.80609C121.435 6.89652 121.391 6.95956 121.345 6.99244C121.298 7.02533 121.243 7.04177 121.188 7.04177C121.133 7.04177 121.061 7.02533 120.979 6.99244C120.899 6.95956 120.797 6.92393 120.679 6.88556C120.56 6.84719 120.42 6.81157 120.263 6.77868C120.106 6.74579 119.917 6.72935 119.697 6.72935C119.438 6.72935 119.215 6.77046 119.031 6.84993C118.844 6.93215 118.692 7.05822 118.571 7.23635C118.453 7.41174 118.362 7.64195 118.299 7.92149C118.236 8.20102 118.205 8.54633 118.205 8.95741V10.1276H123.05V7.28568C123.05 7.18976 123.078 7.1048 123.136 7.02807C123.193 6.95133 123.29 6.8883 123.422 6.83623C123.557 6.78416 123.738 6.74579 123.975 6.72113C124.209 6.69646 124.497 6.6855 124.841 6.6855C125.185 6.6855 125.485 6.69646 125.716 6.72113C125.945 6.74579 126.129 6.78416 126.269 6.83623C126.407 6.8883 126.506 6.95407 126.564 7.02807C126.621 7.1048 126.649 7.18976 126.649 7.28568V10.1276H129.43C129.527 10.1276 129.609 10.1523 129.681 10.1989C129.752 10.2455 129.813 10.3249 129.86 10.4346C129.906 10.5442 129.942 10.6949 129.967 10.884C129.992 11.0758 130.003 11.3088 130.003 11.5828C130.003 12.1063 129.956 12.479 129.86 12.7037C129.763 12.9285 129.626 13.0381 129.444 13.0381H126.649V19.0207C126.649 19.7168 126.756 20.2375 126.971 20.5855C127.185 20.9336 127.579 21.1062 128.154 21.1062C128.344 21.1062 128.517 21.0898 128.671 21.0569C128.822 21.024 128.957 20.9856 129.073 20.9418C129.188 20.8979 129.287 20.8623 129.373 20.8267C129.458 20.7938 129.535 20.7774 129.601 20.7774C129.659 20.7774 129.711 20.7938 129.758 20.8267C129.805 20.8596 129.846 20.9254 129.879 21.0268C129.912 21.1254 129.942 21.2624 129.964 21.4324C129.989 21.605 130 21.8215 130 22.0901C130 22.5094 129.972 22.8328 129.92 23.0602C129.868 23.2877 129.796 23.4466 129.706 23.5316C129.615 23.6166 129.488 23.696 129.326 23.7673C129.164 23.8385 128.971 23.9016 128.745 23.9536C128.52 24.0057 128.28 24.0468 128.022 24.0742C127.763 24.1016 127.502 24.1181 127.232 24.1181C126.506 24.1181 125.879 24.0276 125.353 23.8468C124.828 23.6659 124.393 23.3891 124.049 23.0109C123.705 22.6354 123.452 22.1613 123.29 21.5913C123.127 21.0213 123.045 20.3444 123.045 19.5633V13.0381H118.227L118.23 13.0353Z" fill="white"/>
</g>
<defs>
<clipPath id="clip0_20_150">
<rect width="130" height="27.4054" fill="white" transform="translate(0 0.297302)"/>
</clipPath>
</defs>
</svg>
