<svg width="28" height="28" viewBox="0 0 28 28" fill="none" xmlns="http://www.w3.org/2000/svg">
<rect width="28" height="28" rx="4" fill="#8B8B8B"/>
<path d="M14 14C17.094 14 19.6 11.494 19.6 8.39999C19.6 5.30599 17.094 2.79999 14 2.79999C10.906 2.79999 8.40005 5.30599 8.40005 8.39999C8.40005 11.494 10.906 14 14 14ZM14 16.8C10.262 16.8 2.80005 18.676 2.80005 22.4V23.8C2.80005 24.57 3.43005 25.2 4.20005 25.2H23.8001C24.5701 25.2 25.2001 24.57 25.2001 23.8V22.4C25.2001 18.676 17.738 16.8 14 16.8Z" fill="white"/>
</svg>
